{
  "accessors": [
    {
      "bufferView": 2,
      "componentType": 5126,
      "count": 3858,
      "max": [
        41.809513092041016,
        41.80952453613281,
        40.50102615356445
      ],
      "min": [
        -41.84576416015625,
        -41.84577178955078,
        -41.204132080078125
      ],
      "type": "VEC3"
    },
    {
      "bufferView": 2,
      "byteOffset": 46296,
      "componentType": 5126,
      "count": 3858,
      "max": [
        0.9903867244720459,
        0.9916561841964722,
        0.9964537024497986
      ],
      "min": [
        -0.9927855134010315,
        -0.9976352453231812,
        -0.9983638525009155
      ],
      "type": "VEC3"
    },
    {
      "bufferView": 1,
      "componentType": 5126,
      "count": 3858,
      "max": [
        1.0000016689300537,
        1.000000238418579
      ],
      "min": [
        0.0005000990931876004,
        0
      ],
      "type": "VEC2"
    },
    {
      "bufferView": 0,
      "componentType": 5125,
      "count": 3858,
      "type": "SCALAR"
    },
    {
      "bufferView": 2,
      "byteOffset": 92592,
      "componentType": 5126,
      "count": 1057,
      "max": [
        76.11773681640625,
        75.96753692626953,
        70.91242218017578
      ],
      "min": [
        -76.11773681640625,
        -75.96754455566406,
        -70.91242980957031
      ],
      "type": "VEC3"
    },
    {
      "bufferView": 2,
      "byteOffset": 105276,
      "componentType": 5126,
      "count": 1057,
      "max": [
        0.9980366230010986,
        0.9960672855377197,
        0.9048272371292114
      ],
      "min": [
        -0.9980365633964539,
        -0.9960672855377197,
        -0.9048269391059875
      ],
      "type": "VEC3"
    },
    {
      "bufferView": 1,
      "byteOffset": 30864,
      "componentType": 5126,
      "count": 1057,
      "max": [
        47.520015716552734,
        28.171892166137695
      ],
      "min": [
        -0.5428636074066162,
        3.8280997276306152
      ],
      "type": "VEC2"
    },
    {
      "bufferView": 0,
      "byteOffset": 15432,
      "componentType": 5125,
      "count": 5700,
      "type": "SCALAR"
    },
    {
      "bufferView": 2,
      "byteOffset": 117960,
      "componentType": 5126,
      "count": 701,
      "max": [
        94.48818969726562,
        94.48818969726562,
        94.48818969726562
      ],
      "min": [
        -94.48818969726562,
        -94.48818969726562,
        -94.48818969726562
      ],
      "type": "VEC3"
    },
    {
      "bufferView": 2,
      "byteOffset": 126372,
      "componentType": 5126,
      "count": 701,
      "max": [
        1,
        1,
        1
      ],
      "min": [
        -1,
        -1,
        -1
      ],
      "type": "VEC3"
    },
    {
      "bufferView": 1,
      "byteOffset": 39320,
      "componentType": 5126,
      "count": 701,
      "max": [
        1,
        1
      ],
      "min": [
        0,
        0
      ],
      "type": "VEC2"
    },
    {
      "bufferView": 0,
      "byteOffset": 38232,
      "componentType": 5125,
      "count": 3672,
      "type": "SCALAR"
    },
    {
      "bufferView": 2,
      "byteOffset": 134784,
      "componentType": 5126,
      "count": 2143,
      "max": [
        39.370079040527344,
        39.370079040527344,
        39.370079040527344
      ],
      "min": [
        -39.370079040527344,
        -39.370079040527344,
        -39.370079040527344
      ],
      "type": "VEC3"
    },
    {
      "bufferView": 2,
      "byteOffset": 160500,
      "componentType": 5126,
      "count": 2143,
      "max": [
        1,
        1,
        1
      ],
      "min": [
        -1,
        -1,
        -1
      ],
      "type": "VEC3"
    },
    {
      "bufferView": 3,
      "componentType": 5126,
      "count": 2143,
      "max": [
        1,
        1,
        0.024549447000026703,
        1
      ],
      "min": [
        -1,
        -1,
        -0.024549460038542747,
        1
      ],
      "type": "VEC4"
    },
    {
      "bufferView": 1,
      "byteOffset": 44928,
      "componentType": 5126,
      "count": 2143,
      "max": [
        0.9999994039535522,
        1
      ],
      "min": [
        0,
        -2.384185791015625e-7
      ],
      "type": "VEC2"
    },
    {
      "bufferView": 0,
      "byteOffset": 52920,
      "componentType": 5125,
      "count": 11904,
      "type": "SCALAR"
    },
    {
      "bufferView": 2,
      "byteOffset": 186216,
      "componentType": 5126,
      "count": 701,
      "max": [
        39.76377868652344,
        39.76377868652344,
        39.76377868652344
      ],
      "min": [
        -39.76377868652344,
        -39.76377868652344,
        -39.76377868652344
      ],
      "type": "VEC3"
    },
    {
      "bufferView": 2,
      "byteOffset": 194628,
      "componentType": 5126,
      "count": 701,
      "max": [
        1,
        1,
        1
      ],
      "min": [
        -1,
        -1,
        -1
      ],
      "type": "VEC3"
    },
    {
      "bufferView": 1,
      "byteOffset": 62072,
      "componentType": 5126,
      "count": 701,
      "max": [
        0.9999998211860657,
        1
      ],
      "min": [
        0,
        1.7881393432617188e-7
      ],
      "type": "VEC2"
    },
    {
      "bufferView": 0,
      "byteOffset": 100536,
      "componentType": 5125,
      "count": 3672,
      "type": "SCALAR"
    },
    {
      "bufferView": 2,
      "byteOffset": 203040,
      "componentType": 5126,
      "count": 3858,
      "max": [
        41.79836654663086,
        41.84320068359375,
        40.54629135131836
      ],
      "min": [
        -41.83462142944336,
        -41.87944412231445,
        -41.2494010925293
      ],
      "type": "VEC3"
    },
    {
      "bufferView": 2,
      "byteOffset": 249336,
      "componentType": 5126,
      "count": 3858,
      "max": [
        0.9903867244720459,
        0.9916561841964722,
        0.9964537024497986
      ],
      "min": [
        -0.9927855134010315,
        -0.9976352453231812,
        -0.9983638525009155
      ],
      "type": "VEC3"
    },
    {
      "bufferView": 1,
      "byteOffset": 67680,
      "componentType": 5126,
      "count": 3858,
      "max": [
        1.0000016689300537,
        1.000000238418579
      ],
      "min": [
        0.0005000990931876004,
        0
      ],
      "type": "VEC2"
    },
    {
      "bufferView": 0,
      "byteOffset": 115224,
      "componentType": 5125,
      "count": 3858,
      "type": "SCALAR"
    },
    {
      "bufferView": 4,
      "componentType": 5126,
      "count": 14401,
      "max": [
        480
      ],
      "min": [
        0
      ],
      "type": "SCALAR"
    },
    {
      "bufferView": 5,
      "componentType": 5126,
      "count": 14401,
      "max": [
        0.7071068286895752,
        0.7071068286895752,
        0.7071067094802856,
        0.7071067094802856
      ],
      "min": [
        -0.5000000596046448,
        -0.4998909533023834,
        -0.49989089369773865,
        -0.4999999701976776
      ],
      "type": "VEC4"
    },
    {
      "bufferView": 4,
      "byteOffset": 57604,
      "componentType": 5126,
      "count": 14401,
      "max": [
        480
      ],
      "min": [
        0
      ],
      "type": "SCALAR"
    },
    {
      "bufferView": 5,
      "byteOffset": 230416,
      "componentType": 5126,
      "count": 14401,
      "max": [
        0,
        0,
        1,
        1
      ],
      "min": [
        0,
        0,
        -0.8660253882408142,
        -0.499811053276062
      ],
      "type": "VEC4"
    },
    {
      "bufferView": 4,
      "byteOffset": 115208,
      "componentType": 5126,
      "count": 14401,
      "max": [
        480
      ],
      "min": [
        0
      ],
      "type": "SCALAR"
    },
    {
      "bufferView": 5,
      "byteOffset": 460832,
      "componentType": 5126,
      "count": 14401,
      "max": [
        0.5000000596046448,
        0.7071067094802856,
        0.7071068286895752,
        0.7071067094802856
      ],
      "min": [
        -0.7071068286895752,
        -0.4999999701976776,
        -0.5000000596046448,
        -0.4999999701976776
      ],
      "type": "VEC4"
    },
    {
      "bufferView": 4,
      "byteOffset": 172812,
      "componentType": 5126,
      "count": 14401,
      "max": [
        480
      ],
      "min": [
        0
      ],
      "type": "SCALAR"
    },
    {
      "bufferView": 5,
      "byteOffset": 691248,
      "componentType": 5126,
      "count": 14401,
      "max": [
        0.5000000596046448,
        0.7071067094802856,
        0.7071068286895752,
        0.7071067094802856
      ],
      "min": [
        -0.7071068286895752,
        -0.4999999701976776,
        -0.5000000596046448,
        -0.4999999701976776
      ],
      "type": "VEC4"
    },
    {
      "bufferView": 4,
      "byteOffset": 230416,
      "componentType": 5126,
      "count": 14401,
      "max": [
        480
      ],
      "min": [
        0
      ],
      "type": "SCALAR"
    },
    {
      "bufferView": 5,
      "byteOffset": 921664,
      "componentType": 5126,
      "count": 14401,
      "max": [
        0.6623272895812988,
        0.7071067094802856,
        0.7071068286895752,
        0.7071067094802856
      ],
      "min": [
        -0.7071068286895752,
        -0.6622731685638428,
        -0.5947043895721436,
        -0.4999999701976776
      ],
      "type": "VEC4"
    },
    {
      "bufferView": 4,
      "byteOffset": 288020,
      "componentType": 5126,
      "count": 14401,
      "max": [
        480
      ],
      "min": [
        0
      ],
      "type": "SCALAR"
    },
    {
      "bufferView": 5,
      "byteOffset": 1152080,
      "componentType": 5126,
      "count": 14401,
      "max": [
        0.3799284100532532,
        0.5963678359985352,
        0.7071068286895752,
        0.7071068286895752
      ],
      "min": [
        -0.3799283802509308,
        -0.5963678359985352,
        -0.5962020754814148,
        -0.49999985098838806
      ],
      "type": "VEC4"
    }
  ],
  "animations": [
    {
      "channels": [
        {
          "sampler": 0,
          "target": {
            "node": 4,
            "path": "rotation"
          }
        },
        {
          "sampler": 1,
          "target": {
            "node": 6,
            "path": "rotation"
          }
        },
        {
          "sampler": 2,
          "target": {
            "node": 9,
            "path": "rotation"
          }
        },
        {
          "sampler": 3,
          "target": {
            "node": 11,
            "path": "rotation"
          }
        },
        {
          "sampler": 4,
          "target": {
            "node": 13,
            "path": "rotation"
          }
        },
        {
          "sampler": 5,
          "target": {
            "node": 15,
            "path": "rotation"
          }
        }
      ],
      "name": "rotation",
      "samplers": [
        {
          "input": 25,
          "interpolation": "LINEAR",
          "output": 26
        },
        {
          "input": 27,
          "interpolation": "LINEAR",
          "output": 28
        },
        {
          "input": 29,
          "interpolation": "LINEAR",
          "output": 30
        },
        {
          "input": 31,
          "interpolation": "LINEAR",
          "output": 32
        },
        {
          "input": 33,
          "interpolation": "LINEAR",
          "output": 34
        },
        {
          "input": 35,
          "interpolation": "LINEAR",
          "output": 36
        }
      ]
    }
  ],
  "asset": {
    "extras": {
      "author": "spaceexpert (https://sketchfab.com/spaceexpert)",
      "license": "CC-BY-4.0 (http://creativecommons.org/licenses/by/4.0/)",
      "source": "https://sketchfab.com/3d-models/earth-globe-sci-fi-look-8434c67a411f484c81db412b49de0427",
      "title": "Earth Globe Sci-Fi Look"
    },
    "generator": "Sketchfab-16.53.0",
    "version": "2.0"
  },
  "bufferViews": [
    {
      "buffer": 0,
      "byteLength": 130656,
      "name": "floatBufferViews",
      "target": 34963,
      "byteOffset": 0
    },
    {
      "buffer": 0,
      "byteLength": 98544,
      "byteOffset": 130656,
      "byteStride": 8,
      "name": "floatBufferViews",
      "target": 34962
    },
    {
      "buffer": 0,
      "byteLength": 295632,
      "byteOffset": 229200,
      "byteStride": 12,
      "name": "floatBufferViews",
      "target": 34962
    },
    {
      "buffer": 0,
      "byteLength": 34288,
      "byteOffset": 524832,
      "byteStride": 16,
      "name": "floatBufferViews",
      "target": 34962
    },
    {
      "buffer": 0,
      "byteLength": 345624,
      "byteOffset": 559120,
      "name": "floatBufferViews"
    },
    {
      "buffer": 0,
      "byteLength": 1382496,
      "byteOffset": 904744,
      "byteStride": 16,
      "name": "floatBufferViews"
    }
  ],
  "buffers": [
    {
      "uri": "earth_globe_sci-fi_look_data.bin",
      "byteLength": 2287240
    }
  ],
  "extensionsUsed": [
    "KHR_materials_emissive_strength",
    "KHR_materials_specular"
  ],
  "images": [
    {
      "uri": "earth_globe_sci-fi_look_img0.jpg"
    },
    {
      "uri": "earth_globe_sci-fi_look_img1.png"
    },
    {
      "uri": "earth_globe_sci-fi_look_img2.jpg"
    },
    {
      "uri": "earth_globe_sci-fi_look_img3.jpg"
    },
    {
      "uri": "earth_globe_sci-fi_look_img4.png"
    },
    {
      "uri": "earth_globe_sci-fi_look_img5.jpg"
    },
    {
      "uri": "earth_globe_sci-fi_look_img6.png"
    },
    {
      "uri": "earth_globe_sci-fi_look_img7.jpg"
    }
  ],
  "materials": [
    {
      "doubleSided": true,
      "extensions": {
        "KHR_materials_emissive_strength": {
          "emissiveStrength": 10
        },
        "KHR_materials_specular": {
          "specularColorFactor": [
            1,
            1,
            1
          ],
          "specularFactor": 0
        }
      },
      "name": "graph",
      "pbrMetallicRoughness": {
        "baseColorTexture": {
          "index": 0
        },
        "metallicFactor": 0,
        "roughnessFactor": 0.8929713596
      }
    },
    {
      "doubleSided": true,
      "emissiveFactor": [
        1,
        1,
        1
      ],
      "emissiveTexture": {
        "index": 1
      },
      "extensions": {
        "KHR_materials_specular": {
          "specularColorFactor": [
            1,
            1,
            1
          ],
          "specularFactor": 0
        }
      },
      "name": "dots",
      "pbrMetallicRoughness": {
        "baseColorFactor": [
          0.8614710366,
          0.8614710366,
          0.8614710366,
          1
        ],
        "baseColorTexture": {
          "index": 1
        },
        "metallicFactor": 0.2090320122
      }
    },
    {
      "doubleSided": true,
      "emissiveFactor": [
        1,
        1,
        1
      ],
      "emissiveTexture": {
        "index": 2
      },
      "extensions": {
        "KHR_materials_specular": {
          "specularColorFactor": [
            1,
            1,
            1
          ],
          "specularFactor": 0
        }
      },
      "name": "globe_ambient",
      "pbrMetallicRoughness": {
        "baseColorTexture": {
          "index": 2
        },
        "metallicFactor": 0
      }
    },
    {
      "doubleSided": true,
      "emissiveFactor": [
        1,
        1,
        1
      ],
      "emissiveTexture": {
        "index": 5
      },
      "extensions": {
        "KHR_materials_emissive_strength": {
          "emissiveStrength": 6.2976371951
        },
        "KHR_materials_specular": {
          "specularColorFactor": [
            1,
            1,
            1
          ],
          "specularFactor": 0
        }
      },
      "name": "main",
      "normalTexture": {
        "index": 6
      },
      "pbrMetallicRoughness": {
        "baseColorTexture": {
          "index": 3
        },
        "metallicFactor": 0.4529344512,
        "metallicRoughnessTexture": {
          "index": 4
        },
        "roughnessFactor": 0.8553734756
      }
    },
    {
      "alphaMode": "BLEND",
      "doubleSided": true,
      "extensions": {
        "KHR_materials_emissive_strength": {
          "emissiveStrength": 1.2976371951
        },
        "KHR_materials_specular": {
          "specularColorFactor": [
            1,
            1,
            1
          ],
          "specularFactor": 0
        }
      },
      "name": "clouds",
      "pbrMetallicRoughness": {
        "baseColorFactor": [
          1,
          1,
          1,
          0.8126905488
        ],
        "baseColorTexture": {
          "index": 7
        },
        "metallicFactor": 0,
        "roughnessFactor": 0.8929713596
      }
    }
  ],
  "meshes": [
    {
      "name": "graph_graph_0",
      "primitives": [
        {
          "attributes": {
            "NORMAL": 1,
            "POSITION": 0,
            "TEXCOORD_0": 2
          },
          "indices": 3,
          "material": 0,
          "mode": 4
        }
      ]
    },
    {
      "name": "DOTS_dots_0",
      "primitives": [
        {
          "attributes": {
            "NORMAL": 5,
            "POSITION": 4,
            "TEXCOORD_0": 6
          },
          "indices": 7,
          "material": 1,
          "mode": 4
        }
      ]
    },
    {
      "name": "globe_ambient_globe_ambient_0",
      "primitives": [
        {
          "attributes": {
            "NORMAL": 9,
            "POSITION": 8,
            "TEXCOORD_0": 10
          },
          "indices": 11,
          "material": 2,
          "mode": 4
        }
      ]
    },
    {
      "name": "main_globe_main_0",
      "primitives": [
        {
          "attributes": {
            "NORMAL": 13,
            "POSITION": 12,
            "TANGENT": 14,
            "TEXCOORD_0": 15
          },
          "indices": 16,
          "material": 3,
          "mode": 4
        }
      ]
    },
    {
      "name": "clouds_clouds_0",
      "primitives": [
        {
          "attributes": {
            "NORMAL": 18,
            "POSITION": 17,
            "TEXCOORD_0": 19
          },
          "indices": 20,
          "material": 4,
          "mode": 4
        }
      ]
    },
    {
      "name": "graph_02_graph_0",
      "primitives": [
        {
          "attributes": {
            "NORMAL": 22,
            "POSITION": 21,
            "TEXCOORD_0": 23
          },
          "indices": 24,
          "material": 0,
          "mode": 4
        }
      ]
    }
  ],
  "nodes": [
    {
      "children": [
        1
      ],
      "matrix": [
        -0.02156678224811248,
        -0.0012840262894243323,
        -2.851111101485798e-19,
        0,
        0,
        4.7972674633160924e-18,
        -0.02160497196018696,
        0,
        0.0012840262894243323,
        -0.02156678224811248,
        -4.7887876437863145e-18,
        0,
        0,
        0,
        0,
        1
      ],
      "name": "Sketchfab_model"
    },
    {
      "children": [
        2
      ],
      "matrix": [
        1,
        0,
        0,
        0,
        0,
        -1,
        0,
        0,
        0,
        0,
        -1,
        0,
        0,
        0,
        0,
        1
      ],
      "name": "globe_ui.FBX"
    },
    {
      "children": [
        3
      ],
      "name": "Object_2"
    },
    {
      "children": [
        4,
        6,
        8,
        15
      ],
      "name": "RootNode"
    },
    {
      "children": [
        5
      ],
      "name": "graph",
      "rotation": [
        0.7071068286895752,
        0,
        0,
        0.7071067094802856
      ],
      "translation": [
        0,
        1.823904938191845e-8,
        0
      ]
    },
    {
      "mesh": 0,
      "name": "graph_graph_0"
    },
    {
      "children": [
        7
      ],
      "name": "DOTS"
    },
    {
      "mesh": 1,
      "name": "DOTS_dots_0"
    },
    {
      "children": [
        9,
        11,
        13
      ],
      "name": "Dummy001",
      "rotation": [
        0.6922897696495056,
        -0.143996462225914,
        0.1439964771270752,
        0.6922896504402161
      ]
    },
    {
      "children": [
        10
      ],
      "name": "globe_ambient",
      "rotation": [
        -0.7071068286895752,
        -1.2364476626667556e-15,
        -1.275700228233704e-15,
        0.7071067094802856
      ],
      "translation": [
        2.0087012036060364e-31,
        5.991745728045617e-14,
        3.6777072409677203e-7
      ]
    },
    {
      "mesh": 2,
      "name": "globe_ambient_globe_ambient_0"
    },
    {
      "children": [
        12
      ],
      "name": "main_globe",
      "rotation": [
        -0.7071068286895752,
        -1.2364476626667556e-15,
        -1.275700228233704e-15,
        0.7071067094802856
      ],
      "translation": [
        2.0087012036060364e-31,
        5.991745728045617e-14,
        3.6777072409677203e-7
      ]
    },
    {
      "mesh": 3,
      "name": "main_globe_main_0"
    },
    {
      "children": [
        14
      ],
      "name": "clouds",
      "rotation": [
        -0.6910067796707153,
        -0.15003228187561035,
        0.15003225207328796,
        0.6910066604614258
      ],
      "translation": [
        2.0087012036060364e-31,
        5.991745728045617e-14,
        3.6777072409677203e-7
      ]
    },
    {
      "mesh": 4,
      "name": "clouds_clouds_0"
    },
    {
      "children": [
        16
      ],
      "name": "graph_02",
      "rotation": [
        0.37992823123931885,
        -0.5963678359985352,
        -0.03084353543817997,
        0.7064337134361267
      ],
      "translation": [
        0,
        1.823904938191845e-8,
        0
      ]
    },
    {
      "mesh": 5,
      "name": "graph_02_graph_0"
    }
  ],
  "samplers": [
    {
      "magFilter": 9729,
      "minFilter": 9987,
      "wrapS": 10497,
      "wrapT": 10497
    }
  ],
  "scene": 0,
  "scenes": [
    {
      "name": "Sketchfab_Scene",
      "nodes": [
        0
      ]
    }
  ],
  "textures": [
    {
      "sampler": 0,
      "source": 0
    },
    {
      "sampler": 0,
      "source": 1
    },
    {
      "sampler": 0,
      "source": 2
    },
    {
      "sampler": 0,
      "source": 3
    },
    {
      "sampler": 0,
      "source": 4
    },
    {
      "sampler": 0,
      "source": 5
    },
    {
      "sampler": 0,
      "source": 6
    },
    {
      "sampler": 0,
      "source": 7
    }
  ]
}