{
  "accessors": [
    {
      "bufferView": 2,
      "componentType": 5126,
      "count": 2739,
      "max": [
        5.05003023147583,
        -4.489319801330566,
        23.972400665283203
      ],
      "min": [
        -20.40250015258789,
        -30.241500854492188,
        0
      ],
      "type": "VEC3"
    },
    {
      "bufferView": 2,
      "byteOffset": 32868,
      "componentType": 5126,
      "count": 2739,
      "max": [
        0.9979909658432007,
        0.9993805885314941,
        0.9999690055847168
      ],
      "min": [
        -0.9811846017837524,
        -0.9936982989311218,
        -0.9996901750564575
      ],
      "type": "VEC3"
    },
    {
      "bufferView": 1,
      "componentType": 5126,
      "count": 2739,
      "max": [
        14.990300178527832,
        19.36549949645996
      ],
      "min": [
        12.061699867248535,
        16.175100326538086
      ],
      "type": "VEC2"
    },
    {
      "bufferView": 0,
      "componentType": 5125,
      "count": 3708,
      "type": "SCALAR"
    },
    {
      "bufferView": 2,
      "byteOffset": 65736,
      "componentType": 5126,
      "count": 2739,
      "max": [
        4.680480003356934,
        -4.462830066680908,
        23.972400665283203
      ],
      "min": [
        -21.071699142456055,
        -29.915300369262695,
        0
      ],
      "type": "VEC3"
    },
    {
      "bufferView": 2,
      "byteOffset": 98604,
      "componentType": 5126,
      "count": 2739,
      "max": [
        0.9936982989311218,
        0.9979909658432007,
        0.9999690055847168
      ],
      "min": [
        -0.9993805885314941,
        -0.9811846017837524,
        -0.9996901750564575
      ],
      "type": "VEC3"
    },
    {
      "bufferView": 1,
      "byteOffset": 21912,
      "componentType": 5126,
      "count": 2739,
      "max": [
        27.479999542236328,
        -31.940799713134766
      ],
      "min": [
        24.55150032043457,
        -35.13119888305664
      ],
      "type": "VEC2"
    },
    {
      "bufferView": 0,
      "byteOffset": 14832,
      "componentType": 5125,
      "count": 3708,
      "type": "SCALAR"
    },
    {
      "bufferView": 2,
      "byteOffset": 131472,
      "componentType": 5126,
      "count": 3038,
      "max": [
        4,
        -4.073750019073486,
        24
      ],
      "min": [
        -20.000099182128906,
        -31.000099182128906,
        0
      ],
      "type": "VEC3"
    },
    {
      "bufferView": 2,
      "byteOffset": 167928,
      "componentType": 5126,
      "count": 3038,
      "max": [
        1,
        1,
        1
      ],
      "min": [
        -1,
        -1,
        -1
      ],
      "type": "VEC3"
    },
    {
      "bufferView": 1,
      "byteOffset": 43824,
      "componentType": 5126,
      "count": 3038,
      "max": [
        25.94809913635254,
        5.021170139312744
      ],
      "min": [
        3.1324000358581543,
        -31.74839973449707
      ],
      "type": "VEC2"
    },
    {
      "bufferView": 0,
      "byteOffset": 29664,
      "componentType": 5125,
      "count": 5004,
      "type": "SCALAR"
    }
  ],
  "asset": {
    "extras": {
      "author": "Sycho-ATH (https://sketchfab.com/Sycho-ATH)",
      "license": "CC-BY-4.0 (http://creativecommons.org/licenses/by/4.0/)",
      "source": "https://sketchfab.com/3d-models/roblox-magic-sphere-406d9bcc53bf4009ac164d37d543e3eb",
      "title": "Roblox Magic Sphere"
    },
    "generator": "Sketchfab-15.16.0",
    "version": "2.0"
  },
  "bufferViews": [
    {
      "buffer": 0,
      "byteLength": 49680,
      "name": "floatBufferViews",
      "target": 34963,
      "byteOffset": 0
    },
    {
      "buffer": 0,
      "byteLength": 68128,
      "byteOffset": 49680,
      "byteStride": 8,
      "name": "floatBufferViews",
      "target": 34962
    },
    {
      "buffer": 0,
      "byteLength": 204384,
      "byteOffset": 117808,
      "byteStride": 12,
      "name": "floatBufferViews",
      "target": 34962
    }
  ],
  "buffers": [
    {
      "uri": "roblox_magic_sphere_data.bin",
      "byteLength": 322192
    }
  ],
  "materials": [
    {
      "doubleSided": true,
      "name": "Meshpart1Mtl",
      "pbrMetallicRoughness": {
        "baseColorFactor": [
          0,
          0,
          0,
          1
        ],
        "metallicFactor": 0,
        "roughnessFactor": 0
      }
    },
    {
      "doubleSided": true,
      "name": "Meshpart2Mtl",
      "pbrMetallicRoughness": {
        "baseColorFactor": [
          0.01195839689638109,
          0.4621152395317038,
          0.512241594656483,
          1
        ],
        "metallicFactor": 0,
        "roughnessFactor": 0.6
      }
    },
    {
      "doubleSided": true,
      "name": "Meshpart3Mtl",
      "pbrMetallicRoughness": {
        "baseColorFactor": [
          0.011114224327296217,
          0.04891237706102876,
          0.4942595878527166,
          1
        ],
        "metallicFactor": 0,
        "roughnessFactor": 0.4
      }
    }
  ],
  "meshes": [
    {
      "name": "Object_0",
      "primitives": [
        {
          "attributes": {
            "NORMAL": 1,
            "POSITION": 0,
            "TEXCOORD_0": 2
          },
          "indices": 3,
          "material": 1,
          "mode": 4
        }
      ]
    },
    {
      "name": "Object_1",
      "primitives": [
        {
          "attributes": {
            "NORMAL": 5,
            "POSITION": 4,
            "TEXCOORD_0": 6
          },
          "indices": 7,
          "material": 2,
          "mode": 4
        }
      ]
    },
    {
      "name": "Object_2",
      "primitives": [
        {
          "attributes": {
            "NORMAL": 9,
            "POSITION": 8,
            "TEXCOORD_0": 10
          },
          "indices": 11,
          "material": 0,
          "mode": 4
        }
      ]
    }
  ],
  "nodes": [
    {
      "children": [
        1
      ],
      "matrix": [
        1,
        0,
        0,
        0,
        0,
        2.220446049250313e-16,
        -1,
        0,
        0,
        1,
        2.220446049250313e-16,
        0,
        0,
        0,
        0,
        1
      ],
      "name": "Sketchfab_model"
    },
    {
      "children": [
        2,
        3,
        4
      ],
      "name": "erer.obj.cleaner.materialmerger.gles"
    },
    {
      "mesh": 0,
      "name": "Object_2"
    },
    {
      "mesh": 1,
      "name": "Object_3"
    },
    {
      "mesh": 2,
      "name": "Object_4"
    }
  ],
  "scene": 0,
  "scenes": [
    {
      "name": "Sketchfab_Scene",
      "nodes": [
        0
      ]
    }
  ]
}